{"title":"DHOOM 3 (2013) (NEW SOURCE) DVDSCR - x264 EXCLUSIVE {VikkyMaxx}","uid":9384375,"size":739910501,"categoryP":"video","categoryS":"movies","magnet":"?xt=urn:btih:8e81a533e639d4ea8f3bc393caab1af63c65e552&amp;dn=DHOOM+3+%282013%29+%28NEW+SOURCE%29+DVDSCR+-+x264+EXCLUSIVE+%7BVikkyMaxx%7D&amp;tr=udp%3A%2F%2Ftracker.openbittorrent.com%3A80&amp;tr=udp%3A%2F%2Fopen.demonii.com%3A1337&amp;tr=udp%3A%2F%2Ftracker.coppersurfer.tk%3A6969&amp;tr=udp%3A%2F%2Fexodus.desync.com%3A6969","seeders":1,"leechers":0,"uploader":"shailendramaxx","files":26,"time":1387777783,"description":"\n\nComplete name                            : DHOOM 3 (2013) (NEW SOURCE) DVDSCR -x264 EXCLUSIVE {VikkyMaxx}.mkv\n\nFormat                                   : Matroska\nFormat version                           : Version 2\nFile size                                : 700 MiB\nDuration                                 : 2h 42mn\nOverall bit rate                         : 603 Kbps\nEncoded date                             : UTC 2013-12-22 10:25:44\nWriting application                      : mkvmerge v6.5.0 ('Isn't she lovely') built on Oct 20 2013 12:50:05\nWriting library                          : libebml v1.3.0 + libmatroska v1.4.1\n\nVideo:-\n\nID                                       : 1\nFormat                                   : AVC\nFormat/Info                              : Advanced Video Codec\nFormat profile                           : &lt;a class=&quot;__cf_email__&quot; href=&quot;/cdn-cgi/l/email-protection&quot; data-cfemail=&quot;7b33121c133b3749554a&quot;&gt;[email&amp;#160;protected]&lt;/a&gt;&lt;script cf-hash='f9e31' type=&quot;text/javascript&quot;&gt;\n/* &lt;![CDATA[ */!function(){try{var t=&quot;currentScript&quot;in document?document.currentScript:function(){for(var t=document.getElementsByTagName(&quot;script&quot;),e=t.length;e--;)if(t[e].getAttribute(&quot;cf-hash&quot;))return t[e]}();if(t&amp;&amp;t.previousSibling){var e,r,n,i,c=t.previousSibling,a=c.getAttribute(&quot;data-cfemail&quot;);if(a){for(e=&quot;&quot;,r=parseInt(a.substr(0,2),16),n=2;a.length-n;n+=2)i=parseInt(a.substr(n,2),16)^r,e+=String.fromCharCode(i);e=document.createTextNode(e),c.parentNode.replaceChild(e,c)}}}catch(u){}}();/* ]]&gt; */&lt;/script&gt;\nFormat settings, CABAC                   : Yes\nFormat settings, ReFrames                : 4 frames\nCodec ID                                 : V_MPEG4/ISO/AVC\nDuration                                 : 2h 42mn\nBit rate                                 : 521 Kbps\nWidth                                    : 640 pixels\nHeight                                   : 272 pixels\nDisplay aspect ratio                     : 2.35:1\nFrame rate mode                          : Constant\nFrame rate                               : 23.976 fps\nColor space                              : YUV\nChroma subsampling                       : 4:2:0\nBit depth                                : 8 bits\nScan type                                : Progressive\nBits/(Pixel*Frame)                       : 0.125\nStream size                              : 593 MiB (85%)\nWriting library                          : x264 core 138 r2358 9e941d1\nEncoding settings                        : cabac=1 / ref=3 / \nLanguage                                 : Hindi\nDefault                                  : Yes\nForced                                   : No\n\nAudio:-\n\nID                                       : 2\nFormat                                   : MPEG Audio\nFormat version                           : Version 1\nFormat profile                           : Layer 3\nMode                                     : Joint stereo\nMode extension                           : MS Stereo\nCodec ID                                 : A_MPEG/L3\nCodec ID/Hint                            : MP3\nDuration                                 : 2h 42mn\nBit rate mode                            : Constant\nBit rate                                 : 80.0 Kbps\nChannel(s)                               : 2 channels\nSampling rate                            : 32.0 KHz\nCompression mode                         : Lossy\nStream size                              : 92.9 MiB (13%)\nWriting library                          : LAME3.99r\nEncoding settings                        : -m j -V 4 -q 2 -lowpass\nDefault                                  : Yes\nForced                                   : No\n\n      Language is HINDI\n      \n     SAMPLE INCLUDED\n\n\nSCREENS:\n\n\n[URL=http://s1128.photobucket.com/user/vikkymaxx/media/Dhoom%203/image_zpsea536793.png.html][IMG]http://i1128.photobucket.com/albums/m482/vikkymaxx/Dhoom%203/image_zpsea536793.png[/IMG][/URL]\n\n[URL=http://s1128.photobucket.com/user/vikkymaxx/media/Dhoom%203/image10_zps74d82cf6.png.html][IMG]http://i1128.photobucket.com/albums/m482/vikkymaxx/Dhoom%203/image10_zps74d82cf6.png[/IMG][/URL]\n\n[URL=http://s1128.photobucket.com/user/vikkymaxx/media/Dhoom%203/image16_zpsfe389604.png.html][IMG]http://i1128.photobucket.com/albums/m482/vikkymaxx/Dhoom%203/image16_zpsfe389604.png[/IMG][/URL]\n\n[URL=http://s1128.photobucket.com/user/vikkymaxx/media/Dhoom%203/image9_zpsea7d4b32.png.html][IMG]http://i1128.photobucket.com/albums/m482/vikkymaxx/Dhoom%203/image9_zpsea7d4b32.png[/IMG][/URL]\n\n[URL=http://s1128.photobucket.com/user/vikkymaxx/media/Dhoom%203/image13_zpsa0305afe.png.html][IMG]http://i1128.photobucket.com/albums/m482/vikkymaxx/Dhoom%203/image13_zpsa0305afe.png[/IMG][/URL]\n\n[URL=http://s1128.photobucket.com/user/vikkymaxx/media/Dhoom%203/image11_zpsff21884b.png.html][IMG]http://i1128.photobucket.com/albums/m482/vikkymaxx/Dhoom%203/image11_zpsff21884b.png[/IMG][/URL]\n\n[URL=http://s1128.photobucket.com/user/vikkymaxx/media/Dhoom%203/image6_zpse3932c96.png.html][IMG]http://i1128.photobucket.com/albums/m482/vikkymaxx/Dhoom%203/image6_zpse3932c96.png[/IMG][/URL]\n\n[URL=http://s1128.photobucket.com/user/vikkymaxx/media/Dhoom%203/image5_zps189363a5.png.html][IMG]http://i1128.photobucket.com/albums/m482/vikkymaxx/Dhoom%203/image5_zps189363a5.png[/IMG][/URL]\n\n[URL=http://s1128.photobucket.com/user/vikkymaxx/media/Dhoom%203/image4_zpsbd94f969.png.html][IMG]http://i1128.photobucket.com/albums/m482/vikkymaxx/Dhoom%203/image4_zpsbd94f969.png[/IMG][/URL]\n\n[URL=http://s1128.photobucket.com/user/vikkymaxx/media/Dhoom%203/image1_zps8f4230bf.png.html][IMG]http://i1128.photobucket.com/albums/m482/vikkymaxx/Dhoom%203/image1_zps8f4230bf.png[/IMG][/URL]\n\n[URL=http://s1128.photobucket.com/user/vikkymaxx/media/Dhoom%203/image7_zps96d501f4.png.html][IMG]http://i1128.photobucket.com/albums/m482/vikkymaxx/Dhoom%203/image7_zps96d501f4.png[/IMG][/URL]\n\n[URL=http://s1128.photobucket.com/user/vikkymaxx/media/Dhoom%203/image2_zps36a5757e.png.html][IMG]http://i1128.photobucket.com/albums/m482/vikkymaxx/Dhoom%203/image2_zps36a5757e.png[/IMG][/URL]\n\n\n\n\n\n\n ********** PLEASE SEED AS LONG AS YOU CAN AFTER DOWNLOAD *******\n            \n               ***** THANK YOU REGARDS - VIKKYMAXX *****\n                 ","torrent":{"xt":"urn:btih:8e81a533e639d4ea8f3bc393caab1af63c65e552","amp;dn":"DHOOM+3+%282013%29+%28NEW+SOURCE%29+DVDSCR+-+x264+EXCLUSIVE+%7BVikkyMaxx%7D","amp;tr":["udp%3A%2F%2Ftracker.openbittorrent.com%3A80","udp%3A%2F%2Fopen.demonii.com%3A1337","udp%3A%2F%2Ftracker.coppersurfer.tk%3A6969","udp%3A%2F%2Fexodus.desync.com%3A6969"],"infoHash":"8e81a533e639d4ea8f3bc393caab1af63c65e552","infoHashBuffer":{"type":"Buffer","data":[142,129,165,51,230,57,212,234,143,59,195,147,202,171,26,246,60,101,229,82]},"announce":[],"urlList":[]}}